<svg width="79" height="19" viewBox="0 0 79 19" fill="none" xmlns="http://www.w3.org/2000/svg">
<path d="M12.7614 16.9091C9.12747 16.9091 6.18245 13.5324 6.18245 9.36734C6.18245 5.20204 9.12747 1.82862 12.7614 1.82862C14.0422 1.82862 15.238 2.24723 16.2482 2.97283L12.7614 9.36734L19.3257 5.0238C18.6125 3.72161 17.5896 2.59956 16.3528 1.74812C14.7788 0.66828 12.5894 0 10.1685 0C6.71501 0 3.68528 1.43811 1.99569 3.59174C0.744755 5.18379 0 7.18751 0 9.36723C0 11.5485 0.744755 13.5537 1.99569 15.1469C3.68968 17.3032 6.67427 18.7329 10.0708 18.7329C13.4667 18.7329 16.4505 17.3021 18.1455 15.1469C18.2383 15.0282 18.3282 14.9084 18.4132 14.7841L18.1572 13.6847C16.9663 15.6328 14.9938 16.9091 12.7614 16.9091Z" fill="#4F5665"/>
<path d="M34.5238 18.2793L31.7687 6.50131C31.3261 4.59802 29.8138 3.1991 28.0132 3.1991C27.5462 3.1991 27.0987 3.29471 26.6835 3.4678L20.7522 5.93939H26.8525L27.895 10.4007C26.8838 9.40339 25.5668 8.79657 24.1248 8.79657C21.2613 8.79657 18.9429 10.9955 18.9429 13.7081C18.9429 16.4208 21.2613 18.6231 24.1248 18.6231C26.1862 18.6231 28.0093 17.4665 29.1338 15.6897L29.7385 18.2793H34.5238ZM26.1198 16.4499C24.7989 16.4499 23.7281 15.224 23.7281 13.7081C23.7281 12.1944 24.7989 10.9673 26.1198 10.9673C27.4407 10.9673 28.5124 12.1944 28.5124 13.7081C28.5124 15.224 27.4407 16.4499 26.1198 16.4499Z" fill="#4F5665"/>
<path d="M45.7575 3.20117C45.396 3.20117 45.0541 3.29275 44.7492 3.45677L40.941 5.49061C40.7524 4.19144 39.7676 3.20117 38.5796 3.20117C38.2201 3.20117 37.8771 3.29275 37.5684 3.45677L32.9189 5.93945H36.1879V18.2795H40.9732V7.31229C40.9732 6.55556 41.5076 5.93956 42.17 5.93956C42.8285 5.93956 43.3668 6.55556 43.3668 7.31229V18.2795H48.1501V5.93945C48.1501 4.42611 47.0784 3.20128 45.7575 3.20128" fill="#4F5665"/>
<path d="M75.7668 3.20117C75.4043 3.20117 75.0604 3.29275 74.7507 3.45677L70.9463 5.49061C70.7587 4.19144 69.774 3.20117 68.5859 3.20117C68.2264 3.20117 67.8835 3.29275 67.5738 3.45677L62.9263 5.93945H66.1943V18.2795H70.9786V7.31229C70.9786 6.55556 71.514 5.93956 72.1764 5.93956C72.8368 5.93956 73.3712 6.55556 73.3712 7.31229V18.2795H78.1584V5.93945C78.1584 4.42611 77.0857 3.20128 75.7668 3.20128" fill="#4F5665"/>
<path d="M63.6992 10.9673C63.6992 15.2565 60.6657 18.7328 56.9238 18.7328C53.179 18.7328 50.1436 15.2565 50.1436 10.9673C50.1436 6.67916 53.179 3.20117 56.9238 3.20117C60.6657 3.20117 63.6992 6.67927 63.6992 10.9673ZM57.2042 5.55812C56.9912 4.64432 56.1715 4.10188 55.3743 4.34751C54.5781 4.59214 54.1023 5.53203 54.3162 6.44573L56.6405 16.3761C56.8554 17.2908 57.6732 17.8327 58.4704 17.5909C59.2676 17.3434 59.7414 16.4041 59.5275 15.4905L57.2042 5.55812Z" fill="#4F5665"/>
</svg>
